<?xml version="1.0" encoding="utf-8"?>
<!-- Generator: Adobe Illustrator 24.2.3, SVG Export Plug-In . SVG Version: 6.00 Build 0)  -->
<svg version="1.1" id="Layer_1" xmlns="http://www.w3.org/2000/svg" xmlns:xlink="http://www.w3.org/1999/xlink" x="0px" y="0px"
	 viewBox="0 0 576 512" style="enable-background:new 0 0 576 512;" xml:space="preserve">
<g>
	<path d="M170.2,135.9c-50.4,20.6-47.5,115.2-36.8,134.4c10.4,18.7,36.9,30,57.7,24.5c7.6-2,14.3-5.5,19.9-10.1
		c6.9-5.7,15.5-9.2,24.5-9.1c12.4,0.1,25.1-4.3,36.1-14.1c10.5-9.5,16.4-23.2,16-37.3C286.7,197.8,213,118.4,170.2,135.9z"/>
	<ellipse transform="matrix(0.8666 -0.499 0.499 0.8666 -73.8606 61.1279)" cx="77.4" cy="168.7" rx="24" ry="42.4"/>
	<ellipse transform="matrix(0.9871 -0.1603 0.1603 0.9871 -10.711 43.4094)" cx="263.7" cy="88.1" rx="24" ry="42.4"/>
	<ellipse transform="matrix(0.9258 -0.3779 0.3779 0.9258 -23.1318 46.5903)" cx="107.1" cy="82.2" rx="28.5" ry="47.1"/>
	<ellipse transform="matrix(0.9815 -0.1914 0.1914 0.9815 -6.8809 36.0991)" cx="183.4" cy="53.7" rx="28.5" ry="47.1"/>
	<path d="M410.2,344.6c-50.4,20.6-47.5,115.2-36.8,134.4c10.4,18.7,36.9,30,57.7,24.5c7.6-2,14.3-5.5,19.9-10.1
		c6.9-5.7,15.5-9.2,24.5-9.1c12.4,0.1,25.1-4.3,36.1-14.1c10.5-9.5,16.4-23.2,16-37.3C526.7,406.4,453,327.1,410.2,344.6z"/>
	<path d="M296.2,340.6c-11.5,6.6-11.4,28.5,0.3,48.8c11.7,20.3,30.5,31.4,42,24.8c11.5-6.6,11.4-28.5-0.3-48.8
		C326.5,345.1,307.7,334,296.2,340.6z"/>
	<ellipse transform="matrix(0.9871 -0.1603 0.1603 0.9871 -41.0583 84.5769)" cx="503.6" cy="296.7" rx="24" ry="42.4"/>
	<ellipse transform="matrix(0.9258 -0.3779 0.3779 0.9258 -84.193 152.7534)" cx="347.1" cy="290.9" rx="28.5" ry="47.1"/>
	<ellipse transform="matrix(0.9815 -0.1914 0.1914 0.9815 -42.38 85.8819)" cx="423.4" cy="262.3" rx="28.5" ry="47.1"/>
</g>
</svg>
