<?xml version="1.0" encoding="utf-8"?>
<!-- Generator: Adobe Illustrator 24.2.3, SVG Export Plug-In . SVG Version: 6.00 Build 0)  -->
<svg version="1.1" id="Layer_1" xmlns="http://www.w3.org/2000/svg" xmlns:xlink="http://www.w3.org/1999/xlink" x="0px" y="0px"
	 viewBox="0 0 545 587.7" style="enable-background:new 0 0 545 587.7;" xml:space="preserve">
<g id="Layer_2_1_">
</g>
<path d="M524.4,252.6h-60c-4.9,0-9.1,2.4-12.1,6.1l-13.9,18.2h-59.4c0-15.8,0-27.9,0-27.9c-12.1-105.5-61.8-193.4-88.5-234
	c-8.5-12.1-26.7-12.1-34.6,0c-26.7,40.6-77,128.5-88.5,233.4l-1.2,28.5h-58.2l-13.9-18.2c-3-3.6-7.3-6.1-12.1-6.1H21.2
	c-8.5,0-15.8,6.7-15.8,15.8v51.5c0,8.5,6.7,15.8,15.8,15.8h60c4.9,0,9.1-2.4,12.1-6.1l13.9-18.2h57c5.5,117.6,61.8,217.1,90.9,261.3
	c8.5,12.1,26.7,12.1,34.6,0c29.1-44.3,85.5-143.7,90.9-261.3h57l13.9,18.2c3,3.6,7.3,6.1,12.1,6.1h60c8.5,0,15.8-6.7,15.8-15.8
	v-51.5C539.6,259.3,532.9,252.6,524.4,252.6z M230.4,248.4l2.4-19.4c5.5-13.3,18.8-22.4,34-22.4h12.1c20.6,0,37,17,37,37v5.5v27.9
	h-85.5V248.4z M229.8,327.8L229.8,327.8l0.6-17h85.5v33.3c0,9.1-3,17-8.5,23.6c-6.7,8.5-17,13.3-28.5,13.3h-12.1
	c-18.2,0-33.3-13.3-36.4-30.3c-0.6-2.4-0.6-4.2-0.6-6.7V327.8z"/>
</svg>
