<?xml version="1.0" encoding="utf-8"?>
<!-- Generator: Adobe Illustrator 24.2.3, SVG Export Plug-In . SVG Version: 6.00 Build 0)  -->
<svg version="1.1" id="Layer_1" xmlns="http://www.w3.org/2000/svg" xmlns:xlink="http://www.w3.org/1999/xlink" x="0px" y="0px"
	 viewBox="0 0 88.1 95" style="enable-background:new 0 0 88.1 95;" xml:space="preserve">
<g id="Layer_2_1_">
</g>
<path d="M85.6,40.7h-9.9c-0.8,0-1.5,0.4-2,1l-2.3,3h-9.8c0-2.6,0-4.6,0-4.6C59.6,22.7,51.4,8.2,47,1.5c-1.4-2-4.4-2-5.7,0 C36.9,8.2,28.6,22.7,26.7,40l-0.2,4.7h-9.6l-2.3-3c-0.5-0.6-1.2-1-2-1h-10c-1.4,0-2.6,1.1-2.6,2.6v8.5c0,1.4,1.1,2.6,2.6,2.6h9.9
	c0.8,0,1.5-0.4,2-1l2.3-3h9.4c0.9,19.4,10.2,35.8,15,43.1c1.4,2,4.4,2,5.7,0c4.8-7.3,14.1-23.7,15-43.1h9.4l2.3,3c0.5,0.6,1.2,1,2,1
	h9.9c1.4,0,2.6-1.1,2.6-2.6v-8.5C88.1,41.8,87,40.7,85.6,40.7z M37.1,40l0.4-3.2c0.9-2.2,3.1-3.7,5.6-3.7h2c3.4,0,6.1,2.8,6.1,6.1
	v0.9v4.6H37.1V40z M37,53.1L37,53.1l0.1-2.8h14.1v5.5c0,1.5-0.5,2.8-1.4,3.9c-1.1,1.4-2.8,2.2-4.7,2.2h-2c-3,0-5.5-2.2-6-5
	C37,56.5,37,56.2,37,55.8V53.1z"/>
</svg>
