<?xml version="1.0" encoding="utf-8"?>
<!-- Generator: Adobe Illustrator 24.2.3, SVG Export Plug-In . SVG Version: 6.00 Build 0)  -->
<svg version="1.1" xmlns="http://www.w3.org/2000/svg" xmlns:xlink="http://www.w3.org/1999/xlink" x="0px" y="0px"
	 viewBox="0 0 88.1 95" style="enable-background:new 0 0 88.1 95;" xml:space="preserve">
<style type="text/css">
	.st0{fill:#FFFFFF;}
</style>
<g id="Layer_2">
</g>
<g id="Layer_1">
	<g>
		<path class="st0" d="M37,39.2c0-3.4,2.8-6.1,6.1-6.1h2c3.4,0,6.1,2.8,6.1,6.1v0.9h10.4C59.6,22.7,51.4,8.2,47,1.5
			c-1.4-2-4.4-2-5.7,0C36.9,8.2,28.6,22.7,26.7,40h10.4L37,39.2L37,39.2z"/>
		<path class="st0" d="M85.6,40.7h-9.9c-0.8,0-1.5,0.4-2,1l-2.3,3H16.9l-2.3-3c-0.5-0.6-1.2-1-2-1h-10c-1.4,0-2.6,1.1-2.6,2.6v8.5
			c0,1.4,1.1,2.6,2.6,2.6h9.9c0.8,0,1.5-0.4,2-1l2.3-3h9.4c0.9,19.4,10.2,35.8,15,43.1c1.4,2,4.4,2,5.7,0c4.8-7.3,14.1-23.7,15-43.1
			h9.4l2.3,3c0.5,0.6,1.2,1,2,1h9.9c1.4,0,2.6-1.1,2.6-2.6v-8.5C88.1,41.8,87,40.7,85.6,40.7z M51.2,55.8c0,3.4-2.8,6.1-6.1,6.1h-2
			c-3.4,0-6.1-2.8-6.1-6.1v-5.5h14.2C51.2,50.3,51.2,55.8,51.2,55.8z"/>
	</g>
</g>
</svg>
