<?xml version="1.0" encoding="utf-8"?>
<!-- Generator: Adobe Illustrator 24.2.3, SVG Export Plug-In . SVG Version: 6.00 Build 0)  -->
<svg version="1.1" id="Layer_1" xmlns="http://www.w3.org/2000/svg" xmlns:xlink="http://www.w3.org/1999/xlink" x="0px" y="0px"
	 viewBox="0 0 576 512" enable-background="new 0 0 576 512" xml:space="preserve">
<path d="M281.9,357.2c3.3,0,6.6-0.6,9.6-1.7v126l-117-39v-234l79,26.3v94.1C253.5,344.5,266.2,357.2,281.9,357.2z M57.5,260.7v211
	c0,6.9,7,11.6,13.4,9l84.1-38.3v-234l-85.2,34.1C62.4,245.6,57.5,252.7,57.5,260.7z M374.6,368.7l-0.4,0.4l-0.4,0.4
	c-5.3,5.3-12.4,8.3-20,8.3s-14.7-2.9-20-8.3l-0.4-0.4l-0.4-0.4L311,343.9v137.6l85.2-34.1c7.4-3,12.3-10.1,12.3-18.1V361L395,345.7
	L374.6,368.7z M518.5,154v174.9c0,6.2-5.1,10.3-10.4,10.3c-2.5,0-5.1-0.9-7.2-3l-16-11.9c-1.8-1.4-4-2-6.1-2c-2.8,0-5.7,1.2-7.7,3.5
	l-27.6,31.1c-2,2-4.6,3-7.3,3s-5.3-1-7.3-3l-20.4-22.9l-5.8-6.5c-2-2.3-4.9-3.5-7.7-3.5s-5.6,1.1-7.7,3.5l-26.2,29.5
	c-2,2-4.6,3-7.3,3s-5.3-1-7.3-3l-27.6-31.1c-2-2.3-4.8-3.5-7.7-3.5c-0.1,0-0.1,0-0.2,0c-2.1,0-4.1,0.7-5.9,2l-13.6,10.1l-2.4,1.8
	c-2.1,2.1-4.7,3-7.2,3c-5.3,0-10.4-4.1-10.4-10.3v-88.1v-81.7c0-67.6,52.1-126.6,119.7-128.6c1.3,0,2.5-0.1,3.8-0.1
	C463.2,30.5,518.5,85.8,518.5,154z M374.4,154c0-11.4-9.2-20.6-20.6-20.6c-11.4,0-20.6,9.2-20.6,20.6c0,11.4,9.2,20.6,20.6,20.6
	C365.2,174.6,374.4,165.3,374.4,154z M456.7,154c0-11.4-9.2-20.6-20.6-20.6c-11.4,0-20.6,9.2-20.6,20.6c0,11.4,9.2,20.6,20.6,20.6
	C447.5,174.6,456.7,165.3,456.7,154z"/>
</svg>
