<?xml version="1.0" encoding="utf-8"?>
<!-- Generator: Adobe Illustrator 24.2.3, SVG Export Plug-In . SVG Version: 6.00 Build 0)  -->
<svg version="1.1" id="Layer_1" xmlns="http://www.w3.org/2000/svg" xmlns:xlink="http://www.w3.org/1999/xlink" x="0px" y="0px"
	 viewBox="0 0 500 484.8" style="enable-background:new 0 0 500 484.8;" xml:space="preserve">
<path d="M257.6,0C123.9,0,15.2,108.7,15.2,242.4c0,32.7,6.8,63.8,18.2,91.9c0.7-0.3,0.1,0.2,0.1,0.2c0-0.1-0.1-0.1-0.1-0.2
	c-12.2,3-20.5,5.3-20.5,5.3l22,14.4L0,366.3c15.6,5.2,46.3,17.6,66.2,26.7l0.2,0.2l6.6,6c44.2,52.3,110.5,85.7,184.7,85.7
	c133.7,0,242.4-108.7,242.4-242.4C500,108.7,391.3,0,257.6,0z M36.5,243.9c0-1.5,0.1-3,0.1-4.6h169.2h5.5l0,0h0.6
	c-0.3,1.7-0.4,2.9-0.4,2.9l0.3,0.4c-0.8,14.2,2.2,28.5,7.1,37c12.9,22-20.5,32.7-58.5,32.7c-28.4,0-65.3,7.2-95.6,13.7l-0.2-0.4
	l-5.7,1.7c-1.6,0.3-3.2,0.7-4.8,1c0,0.1,0.1,0.2,0.1,0.3l-0.3,0.1C42.5,302.2,36.5,274.2,36.5,243.9z M253,463.3
	c-49.9-1-95.3-18.1-131.5-46.2c-0.2,0-0.6-0.1-1.3-0.4l1.3,0.4l0-0.8c0,0,0,0,0,0c42.5,15.2,81.3,16.7,81.3,16.7
	c13.9,1.7,26.6,1.7,38,1c4,0.5,8.4,0,12.1-0.7V463.3z M253,198.7c-3.5,0.3-5.8,0.7-5.8,0.7c-16,1.8-25.6,10.8-30.8,22.7
	c-0.2,0.3-0.4,0.7-0.6,1c-1,2.3-1.9,5.3-2.5,8.3c-0.2,0.8-0.4,1.7-0.6,2.6h-7.3l0,0H36.7C41.8,118.6,136.1,26.8,253,24.4V198.7z
	 M258.4,24.3C377,24.7,473.3,118,478.5,234H295.1c-0.1-0.3-0.2-0.5-0.2-0.8h0.7c-1.5-0.8-0.8-1.5-0.8-1.5
	c-2.4-22-18.3-29.6-28.7-32.2l-0.2-0.3c-1.2-0.2-2.5-0.4-3.8-0.5c-1.2-0.2-2.3-0.3-3.1-0.4v0.2c-0.3,0-0.5,0-0.8,0V24.3z
	 M258.4,463.5v-31.2c2.8-0.8,4.6-1.4,4.6-1.4l0.1-0.2c95.2-19.7,60.8-115.6,26.4-129c-23.6-9.1-22-24.3-22-24.3
	c-6.1-17.5,63.8-12.9,63.8-12.9c14.4-6.1,6.1-11.4,6.1-11.4c-21.6-4.3-32.2-9.3-37.8-13.7h179c0,1.5,0.1,3,0.1,4.6
	C478.7,365.2,380.3,463.1,258.4,463.5z"/>
</svg>
