<?xml version="1.0" encoding="utf-8"?>
<!-- Generator: Adobe Illustrator 24.2.3, SVG Export Plug-In . SVG Version: 6.00 Build 0)  -->
<svg version="1.1"
	 id="Layer_1" xmlns:cc="http://creativecommons.org/ns#" xmlns:dc="http://purl.org/dc/elements/1.1/" xmlns:inkscape="http://www.inkscape.org/namespaces/inkscape" xmlns:rdf="http://www.w3.org/1999/02/22-rdf-syntax-ns#" xmlns:sodipodi="http://sodipodi.sourceforge.net/DTD/sodipodi-0.dtd" xmlns:svg="http://www.w3.org/2000/svg"
	 xmlns="http://www.w3.org/2000/svg" xmlns:xlink="http://www.w3.org/1999/xlink" x="0px" y="0px" viewBox="0 0 500 500"
	 style="enable-background:new 0 0 500 500;" xml:space="preserve">
<style type="text/css">
	.st0{stroke:#000000;stroke-width:0.7869;}
</style>
<path class="st0" d="M27.4,252.6c-18.8-3.8-30.5-22.8-26.7-41.7s22.8-30.5,41.7-26.7s30.5,22.8,26.7,41.7
	C65.1,244.7,46.3,256.4,27.4,252.6z M173.6,305.4c0-1.2-11.2-13.3-23.8-26.7c-11.7-12.8-18.3-20.5-17.8-22.2
	c0-0.5,8.3-6.7,18.3-12.8c15-9.5,18.8-12.2,22.2-16.2c3.8-5,31.7-49,35-56.2c2.8-5.5,3.3-12.2,1.7-16.7c-3.3-8.3-14.5-13.3-23.3-10
	c-5.5,2.2-11.2,9.5-26.7,34.5c-13.3,21.7-22.8,31.7-33.8,36.2c-7.2,2.8-1.2-2.8-2.2-55c-1.2-39-2.2-45-7.8-50c-6.2-5-16.2-5-23.3,0
	c-3.8,3.3-6.2,6.7-6.7,12.8c-0.5,2.8-0.5,27.8,0,55l0.5,49.5l-6.7,5c-11.7,8.8-17.8,18.8-20,32.2c-0.5,6.2-1.2,8.8,0,12.8
	c1.7,7.8,3.3,11.2,10.5,19.5c7.2,8.3,43.3,48.3,50.7,55.7C130.8,362.6,162.5,314.2,173.6,305.4z M354.4,423.8
	c-6.7-6.7-64-56.7-67.4-58.4c-4.5-2.8-12.2-5-30.5-10.5c-10.5-2.8-22.2-6.7-26.2-7.8c-7.2-2.2-12.2-5-12.2-6.2
	c0.5-2.8,31.2-41.2,35.7-45c6.7-5.5,9.5-5.5,38.3-2.2c31.7,3.8,45,2.8,52.4-1.7c11.2-6.7,12.2-20.5,5-31.2c-3.8-5-13.8-7.2-23.8-9.5
	c-13.8-2.8-64-8.3-78.4-8.3c-7.8-0.5-9.5,0-13.8,3.8c-33.3,30-52.4,72.9-85.7,103.5c-7.2,7.8-16.7,8.3-16.7,8.8
	c0,0.5,11.7,11.7,16.2,13.8c11.2,5,28.8,10,89,25.5l21.7,5.5l9.5,7.8c5,3.8,19.5,16.7,32.2,27.2c22.8,20,27.8,23.3,33.3,26.2
	c8.8,3.8,18.8,1.7,27.2-5.5c3.3-3.3,6.7-13.3,5.5-18.8C365,436.6,361,430.4,354.4,423.8z M132,373.8c-2.2-3.3-5-3.3-13.3-1.2
	c-6.7,2.2-21.2,8.3-21.7,11.2c0,2.8,8.8,30.5,13.3,39.5c3.3,6.7,19.5-1.7,33.3-8.3c2.2-1.2,2.8-1.7,2.2-4.5
	C144.8,403.3,135.8,378.8,132,373.8z M497.9,5.5c-15-4.5-471.2,0-471.2,0s-12.8,6.2-14.5,13.3c-2.2,7.3,2.3,17.3,7.8,24.5
	S32.9,60,44.6,61.2s27.8-5.5,37.3,1.2S96.4,89,105.3,96.2s83.4,35.7,93.4,41.7c10,6,85,25.5,94.5,30.5c9.5,4.5,36.2,9.5,46.2,22.2
	s22.2,36.7,25.5,50.7c3.3,13.8-8.8,57.4,2.2,76.2c11.2,19.5,46.2,31.7,62.9,51.7c17.2,20,26.2,49,32.8,69.5
	c6.7,20.5-1.2,42.3,8.8,50.7c10,8.3,25,10.5,27.2,0C501.2,479.5,499.6,132.3,497.9,5.5z"/>
</svg>
