<?xml version="1.0" encoding="utf-8"?>
<!-- Generator: Adobe Illustrator 24.2.3, SVG Export Plug-In . SVG Version: 6.00 Build 0)  -->
<svg version="1.1"
	 id="Layer_1" xmlns:cc="http://creativecommons.org/ns#" xmlns:dc="http://purl.org/dc/elements/1.1/" xmlns:inkscape="http://www.inkscape.org/namespaces/inkscape" xmlns:rdf="http://www.w3.org/1999/02/22-rdf-syntax-ns#" xmlns:sodipodi="http://sodipodi.sourceforge.net/DTD/sodipodi-0.dtd" xmlns:svg="http://www.w3.org/2000/svg"
	 xmlns="http://www.w3.org/2000/svg" xmlns:xlink="http://www.w3.org/1999/xlink" x="0px" y="0px" viewBox="0 0 90 88.9"
	 style="enable-background:new 0 0 90 88.9;" xml:space="preserve">
<style type="text/css">
	.st0{stroke:#000000;stroke-width:0.1415;}
</style>
<g transform="translate(0,-952.36218)">
	<path d="M12.4,992.4c-0.7,3.4-4.1,5.5-7.5,4.8s-5.5-4.1-4.8-7.5c0,0,0,0,0,0c0.7-3.4,4.1-5.5,7.5-4.8S13.1,989,12.4,992.4
		C12.4,992.4,12.4,992.4,12.4,992.4z"/>
	<path d="M21.6,1015.2c-1.3-1.3-7.8-8.5-9.1-10c-1.3-1.5-1.6-2.1-1.9-3.5c-0.2-0.7-0.1-1.2,0-2.3c0.4-2.4,1.5-4.2,3.6-5.8l1.2-0.9
		l-0.1-8.9c-0.1-4.9-0.1-9.4,0-9.9c0.1-1.1,0.5-1.7,1.2-2.3c1.3-0.9,3.1-0.9,4.2,0c1,0.9,1.2,2,1.4,9c0.2,9.4-0.9,10.4,0.4,9.9
		c2-0.8,3.7-2.6,6.1-6.5c2.8-4.5,3.8-5.8,4.8-6.2c1.6-0.6,3.6,0.3,4.2,1.8c0.3,0.8,0.2,2-0.3,3c-0.6,1.3-5.6,9.2-6.3,10.1
		c-0.6,0.7-1.3,1.2-4,2.9c-1.8,1.1-3.3,2.2-3.3,2.3c-0.1,0.3,1.1,1.7,3.2,4c2.3,2.4,4.3,4.6,4.3,4.8
		C29.2,1008.3,23.5,1017,21.6,1015.2L21.6,1015.2z"/>
	<path d="M59.8,1035.5c-1-0.5-1.9-1.1-6-4.7c-2.3-1.9-4.9-4.2-5.8-4.9l-1.7-1.4l-3.9-1c-10.8-2.8-14-3.7-16-4.6
		c-0.8-0.4-2.9-2.4-2.9-2.5c0-0.1,1.7-0.2,3-1.6c6-5.5,9.4-13.2,15.4-18.6c0.8-0.7,1.1-0.8,2.5-0.7c2.6,0,11.6,1,14.1,1.5
		c1.8,0.4,3.6,0.8,4.3,1.7c1.3,1.9,1.1,4.4-0.9,5.6c-1.3,0.8-3.7,1-9.4,0.3c-5.2-0.6-5.7-0.6-6.9,0.4c-0.8,0.7-6.3,7.6-6.4,8.1
		c0,0.2,0.9,0.7,2.2,1.1c0.7,0.2,2.8,0.9,4.7,1.4c3.3,1,4.7,1.4,5.5,1.9c0.6,0.3,10.9,9.3,12.1,10.5c1.2,1.2,1.9,2.3,2,3.1
		c0.2,1-0.4,2.8-1,3.4C63.2,1035.8,61.4,1036.2,59.8,1035.5z"/>
	<path d="M19.8,1027.9c-0.8-1.6-2.4-6.6-2.4-7.1c0.1-0.5,2.7-1.6,3.9-2c1.5-0.4,2-0.4,2.4,0.2c0.7,0.9,2.3,5.3,2.5,6.6
		c0.1,0.5,0,0.6-0.4,0.8C23.3,1027.6,20.4,1029.1,19.8,1027.9L19.8,1027.9z"/>
	<path class="st0" d="M89.5,952.8c-2.7-0.8-84.7,0-84.7,0s-2.3,1.1-2.6,2.4c-0.4,1.3,0.4,3.1,1.4,4.4s2.3,3,4.4,3.2s5-1,6.7,0.2
		s2.6,4.8,4.2,6.1s15,6.4,16.8,7.5s15.3,4.6,17,5.5c1.7,0.8,6.5,1.7,8.3,4c1.8,2.3,4,6.6,4.6,9.1c0.6,2.5-1.6,10.3,0.4,13.7
		c2,3.5,8.3,5.7,11.3,9.3c3.1,3.6,4.7,8.8,5.9,12.5c1.2,3.7-0.2,7.6,1.6,9.1c1.8,1.5,4.5,1.9,4.9,0C90.1,1038,89.8,975.6,89.5,952.8
		L89.5,952.8z"/>
</g>
</svg>
